# xmcd CD database file
#
# Track frame offsets:
#	150
#	97042
#	110175
#	161479
#	223175
#	236724
#	248488
#	267748
#	278855
#	291896
#
# Disc length: 4104 seconds
#
# Revision: 0
# Processed by: cddbd v1.5.2PL0 Copyright (c) Steve Scherf et al.
# Submitted via: CDex 1.70beta2
#
DISCID=9f10060a
DTITLE=Dexter Gordon - Blow Mr Dexter Cd3
DYEAR=1900
DGENRE=Jazz
TTITLE0=Cherokee
TTITLE1=Sid's delight
TTITLE2=The Chase
TTITLE3=Steeplechase
TTITLE4=The Rubyait
TTITLE5=I hear you knockin'
TTITLE6=My kinda love
TTITLE7=Jingle, jangle, jump
TTITLE8=Citizen's bop
TTITLE9=Man with a horn
EXTD=
EXTT0=
EXTT1=
EXTT2=
EXTT3=
EXTT4=
EXTT5=
EXTT6=
EXTT7=
EXTT8=
EXTT9=
PLAYORDER=
